<svg xmlns="http://www.w3.org/2000/svg" viewBox="0 -728 4200 943" width="213" height="48" role="img" aria-label="purple.">
  <style>
    .word { fill: #b44aff; }
    .dot { fill: #00f0ff; }
  </style>
  <g transform="scale(1,-1)">
    <path class="word" d="M80 -215H198V53H203C224 1 247 -10 332 -10C498 -10 534 39 534 261C534 488 496 538 325 538C240 538 217 527 198 475H193V528H80ZM304 97C212 97 192 127 192 264C192 401 212 431 304 431C397 431 418 401 418 264C418 127 397 97 304 97Z" transform="translate(0,0)"/>
    <path class="word" d="M516 0V528H398V255C398 126 378 98 286 98C215 98 199 115 199 194V528H81V194C81 27 112 -10 254 -10C352 -10 380 6 408 80H413V0Z" transform="translate(600,0)"/>
    <path class="word" d="M156 0H273V219C273 382 303 418 442 418C472 418 494 416 538 409V524C472 530 447 531 399 530C308 529 300 524 245 421H240L256 528H156Z" transform="translate(1200,0)"/>
    <path class="word" d="M80 -215H198V53H203C224 1 247 -10 332 -10C498 -10 534 39 534 261C534 488 496 538 325 538C240 538 217 527 198 475H193V528H80ZM304 97C212 97 192 127 192 264C192 401 212 431 304 431C397 431 418 401 418 264C418 127 397 97 304 97Z" transform="translate(1800,0)"/>
    <path class="word" d="M85 0H528V101H368V728H95V627H257V101H85Z" transform="translate(2400,0)"/>
    <path class="word" d="M408 143C394 102 377 93 313 93C217 93 194 115 188 215H526C532 480 491 538 298 538C116 538 76 489 76 265C76 40 119 -10 315 -10C463 -10 500 18 519 143ZM189 305C193 415 214 439 303 439C390 439 411 415 416 305Z" transform="translate(3000,0)"/>
    <path class="dot" d="M224 0H376V152H224Z" transform="translate(3600,0)"/>
  </g>
</svg>
